<?xml version="1.0" encoding="UTF-8" standalone="no"?>
<!DOCTYPE svg PUBLIC "-//W3C//DTD SVG 1.1//EN"
 "http://www.w3.org/Graphics/SVG/1.1/DTD/svg11.dtd">
<!-- Generated by graphviz version 2.38.0 (20140413.2041)
 -->
<!-- Title: controllers_diagram Pages: 1 -->
<svg width="664pt" height="613pt"
 viewBox="0.00 0.00 663.76 613.00" xmlns="http://www.w3.org/2000/svg" xmlns:xlink="http://www.w3.org/1999/xlink">
<g id="graph0" class="graph" transform="scale(1 1) rotate(0) translate(243.821 353.5)">
<title>controllers_diagram</title>
<polygon fill="none" stroke="none" points="-243.821,259.5 -243.821,-353.5 419.935,-353.5 419.935,259.5 -243.821,259.5"/>
<!-- _diagram_info -->
<g id="node1" class="node"><title>_diagram_info</title>
<text text-anchor="start" x="-151.688" y="100.9" font-family="Times,serif" font-size="13.00">Controllers diagram</text>
<text text-anchor="start" x="-151.688" y="113.9" font-family="Times,serif" font-size="13.00">Date: Aug 01 2016 &#45; 19:52</text>
<text text-anchor="start" x="-151.688" y="126.9" font-family="Times,serif" font-size="13.00">Migration version: 20160802005043</text>
<text text-anchor="start" x="-151.688" y="139.9" font-family="Times,serif" font-size="13.00">Generated by RailRoady 1.5.1</text>
<text text-anchor="start" x="-151.688" y="152.9" font-family="Times,serif" font-size="13.00">http://railroady.prestonlee.com</text>
</g>
<!-- ApplicationController -->
<g id="node2" class="node"><title>ApplicationController</title>
<path fill="none" stroke="black" d="M-227.821,-241C-227.821,-241 -112.179,-241 -112.179,-241 -106.179,-241 -100.179,-247 -100.179,-253 -100.179,-253 -100.179,-321 -100.179,-321 -100.179,-327 -106.179,-333 -112.179,-333 -112.179,-333 -227.821,-333 -227.821,-333 -233.821,-333 -239.821,-327 -239.821,-321 -239.821,-321 -239.821,-253 -239.821,-253 -239.821,-247 -233.821,-241 -227.821,-241"/>
<text text-anchor="middle" x="-170" y="-317.8" font-family="Times,serif" font-size="14.00">ApplicationController</text>
<polyline fill="none" stroke="black" points="-239.821,-311 -100.179,-311 "/>
<polyline fill="none" stroke="black" points="-239.821,-287 -100.179,-287 "/>
<polyline fill="none" stroke="black" points="-239.821,-263 -100.179,-263 "/>
<text text-anchor="start" x="-231.821" y="-247.8" font-family="Times,serif" font-size="14.00">_layout</text>
</g>
<!-- GenresController -->
<g id="node3" class="node"><title>GenresController</title>
<path fill="none" stroke="black" d="M92.4033,-81C92.4033,-81 181.597,-81 181.597,-81 187.597,-81 193.597,-87 193.597,-93 193.597,-93 193.597,-271 193.597,-271 193.597,-277 187.597,-283 181.597,-283 181.597,-283 92.4033,-283 92.4033,-283 86.4033,-283 80.4033,-277 80.4033,-271 80.4033,-271 80.4033,-93 80.4033,-93 80.4033,-87 86.4033,-81 92.4033,-81"/>
<text text-anchor="middle" x="137" y="-267.8" font-family="Times,serif" font-size="14.00">GenresController</text>
<polyline fill="none" stroke="black" points="80.4033,-261 193.597,-261 "/>
<text text-anchor="start" x="88.4033" y="-245.8" font-family="Times,serif" font-size="14.00">create</text>
<text text-anchor="start" x="88.4033" y="-231.8" font-family="Times,serif" font-size="14.00">destroy</text>
<text text-anchor="start" x="88.4033" y="-217.8" font-family="Times,serif" font-size="14.00">edit</text>
<text text-anchor="start" x="88.4033" y="-203.8" font-family="Times,serif" font-size="14.00">index</text>
<text text-anchor="start" x="88.4033" y="-189.8" font-family="Times,serif" font-size="14.00">new</text>
<text text-anchor="start" x="88.4033" y="-175.8" font-family="Times,serif" font-size="14.00">show</text>
<text text-anchor="start" x="88.4033" y="-161.8" font-family="Times,serif" font-size="14.00">update</text>
<polyline fill="none" stroke="black" points="80.4033,-155 193.597,-155 "/>
<polyline fill="none" stroke="black" points="80.4033,-131 193.597,-131 "/>
<text text-anchor="start" x="88.4033" y="-115.8" font-family="Times,serif" font-size="14.00">_layout</text>
<text text-anchor="start" x="88.4033" y="-101.8" font-family="Times,serif" font-size="14.00">genre_params</text>
<text text-anchor="start" x="88.4033" y="-87.8" font-family="Times,serif" font-size="14.00">set_genre</text>
</g>
<!-- SongsController -->
<g id="node4" class="node"><title>SongsController</title>
<path fill="none" stroke="black" d="M-51.8896,-81C-51.8896,-81 31.8896,-81 31.8896,-81 37.8896,-81 43.8896,-87 43.8896,-93 43.8896,-93 43.8896,-271 43.8896,-271 43.8896,-277 37.8896,-283 31.8896,-283 31.8896,-283 -51.8896,-283 -51.8896,-283 -57.8896,-283 -63.8896,-277 -63.8896,-271 -63.8896,-271 -63.8896,-93 -63.8896,-93 -63.8896,-87 -57.8896,-81 -51.8896,-81"/>
<text text-anchor="middle" x="-10" y="-267.8" font-family="Times,serif" font-size="14.00">SongsController</text>
<polyline fill="none" stroke="black" points="-63.8896,-261 43.8896,-261 "/>
<text text-anchor="start" x="-55.8896" y="-245.8" font-family="Times,serif" font-size="14.00">create</text>
<text text-anchor="start" x="-55.8896" y="-231.8" font-family="Times,serif" font-size="14.00">destroy</text>
<text text-anchor="start" x="-55.8896" y="-217.8" font-family="Times,serif" font-size="14.00">edit</text>
<text text-anchor="start" x="-55.8896" y="-203.8" font-family="Times,serif" font-size="14.00">index</text>
<text text-anchor="start" x="-55.8896" y="-189.8" font-family="Times,serif" font-size="14.00">new</text>
<text text-anchor="start" x="-55.8896" y="-175.8" font-family="Times,serif" font-size="14.00">show</text>
<text text-anchor="start" x="-55.8896" y="-161.8" font-family="Times,serif" font-size="14.00">update</text>
<polyline fill="none" stroke="black" points="-63.8896,-155 43.8896,-155 "/>
<polyline fill="none" stroke="black" points="-63.8896,-131 43.8896,-131 "/>
<text text-anchor="start" x="-55.8896" y="-115.8" font-family="Times,serif" font-size="14.00">_layout</text>
<text text-anchor="start" x="-55.8896" y="-101.8" font-family="Times,serif" font-size="14.00">set_song</text>
<text text-anchor="start" x="-55.8896" y="-87.8" font-family="Times,serif" font-size="14.00">song_params</text>
</g>
<!-- Users::ConfirmationsController -->
<g id="node5" class="node"><title>Users::ConfirmationsController</title>
<path fill="none" stroke="black" d="M140.338,127C140.338,127 309.662,127 309.662,127 315.662,127 321.662,121 321.662,115 321.662,115 321.662,47 321.662,47 321.662,41 315.662,35 309.662,35 309.662,35 140.338,35 140.338,35 134.338,35 128.338,41 128.338,47 128.338,47 128.338,115 128.338,115 128.338,121 134.338,127 140.338,127"/>
<text text-anchor="middle" x="225" y="50.2" font-family="Times,serif" font-size="14.00">Users::ConfirmationsController</text>
<polyline fill="none" stroke="black" points="128.338,57 321.662,57 "/>
<polyline fill="none" stroke="black" points="128.338,81 321.662,81 "/>
<polyline fill="none" stroke="black" points="128.338,105 321.662,105 "/>
<text text-anchor="start" x="136.338" y="120.2" font-family="Times,serif" font-size="14.00">_layout</text>
</g>
<!-- Users::OmniauthCallbacksController -->
<g id="node6" class="node"><title>Users::OmniauthCallbacksController</title>
<path fill="none" stroke="black" d="M-116.204,47C-116.204,47 84.2036,47 84.2036,47 90.2036,47 96.2036,41 96.2036,35 96.2036,35 96.2036,-33 96.2036,-33 96.2036,-39 90.2036,-45 84.2036,-45 84.2036,-45 -116.204,-45 -116.204,-45 -122.204,-45 -128.204,-39 -128.204,-33 -128.204,-33 -128.204,35 -128.204,35 -128.204,41 -122.204,47 -116.204,47"/>
<text text-anchor="middle" x="-16" y="-29.8" font-family="Times,serif" font-size="14.00">Users::OmniauthCallbacksController</text>
<polyline fill="none" stroke="black" points="-128.204,-23 96.2036,-23 "/>
<polyline fill="none" stroke="black" points="-128.204,1 96.2036,1 "/>
<polyline fill="none" stroke="black" points="-128.204,25 96.2036,25 "/>
<text text-anchor="start" x="-120.204" y="40.2" font-family="Times,serif" font-size="14.00">_layout</text>
</g>
<!-- Users::PasswordsController -->
<g id="node7" class="node"><title>Users::PasswordsController</title>
<path fill="none" stroke="black" d="M235.838,-129C235.838,-129 384.162,-129 384.162,-129 390.162,-129 396.162,-135 396.162,-141 396.162,-141 396.162,-209 396.162,-209 396.162,-215 390.162,-221 384.162,-221 384.162,-221 235.838,-221 235.838,-221 229.838,-221 223.838,-215 223.838,-209 223.838,-209 223.838,-141 223.838,-141 223.838,-135 229.838,-129 235.838,-129"/>
<text text-anchor="middle" x="310" y="-205.8" font-family="Times,serif" font-size="14.00">Users::PasswordsController</text>
<polyline fill="none" stroke="black" points="223.838,-199 396.162,-199 "/>
<polyline fill="none" stroke="black" points="223.838,-175 396.162,-175 "/>
<polyline fill="none" stroke="black" points="223.838,-151 396.162,-151 "/>
<text text-anchor="start" x="231.838" y="-135.8" font-family="Times,serif" font-size="14.00">_layout</text>
</g>
<!-- Users::RegistrationsController -->
<g id="node8" class="node"><title>Users::RegistrationsController</title>
<path fill="none" stroke="black" d="M236.455,-1C236.455,-1 399.545,-1 399.545,-1 405.545,-1 411.545,-7 411.545,-13 411.545,-13 411.545,-79 411.545,-79 411.545,-85 405.545,-91 399.545,-91 399.545,-91 236.455,-91 236.455,-91 230.455,-91 224.455,-85 224.455,-79 224.455,-79 224.455,-13 224.455,-13 224.455,-7 230.455,-1 236.455,-1"/>
<text text-anchor="middle" x="318" y="-75.8" font-family="Times,serif" font-size="14.00">Users::RegistrationsController</text>
<polyline fill="none" stroke="black" points="224.455,-69 411.545,-69 "/>
<text text-anchor="start" x="232.455" y="-53.8" font-family="Times,serif" font-size="14.00">configure_sign_up_params</text>
<polyline fill="none" stroke="black" points="224.455,-47 411.545,-47 "/>
<polyline fill="none" stroke="black" points="224.455,-23 411.545,-23 "/>
<text text-anchor="start" x="232.455" y="-7.8" font-family="Times,serif" font-size="14.00">_layout</text>
</g>
<!-- Users::SessionsController -->
<g id="node9" class="node"><title>Users::SessionsController</title>
<path fill="none" stroke="black" d="M92.2793,255C92.2793,255 229.721,255 229.721,255 235.721,255 241.721,249 241.721,243 241.721,243 241.721,175 241.721,175 241.721,169 235.721,163 229.721,163 229.721,163 92.2793,163 92.2793,163 86.2793,163 80.2793,169 80.2793,175 80.2793,175 80.2793,243 80.2793,243 80.2793,249 86.2793,255 92.2793,255"/>
<text text-anchor="middle" x="161" y="178.2" font-family="Times,serif" font-size="14.00">Users::SessionsController</text>
<polyline fill="none" stroke="black" points="80.2793,185 241.721,185 "/>
<polyline fill="none" stroke="black" points="80.2793,209 241.721,209 "/>
<polyline fill="none" stroke="black" points="80.2793,233 241.721,233 "/>
<text text-anchor="start" x="88.2793" y="248.2" font-family="Times,serif" font-size="14.00">_layout</text>
</g>
<!-- Users::UnlocksController -->
<g id="node10" class="node"><title>Users::UnlocksController</title>
<path fill="none" stroke="black" d="M268.065,-257C268.065,-257 403.935,-257 403.935,-257 409.935,-257 415.935,-263 415.935,-269 415.935,-269 415.935,-337 415.935,-337 415.935,-343 409.935,-349 403.935,-349 403.935,-349 268.065,-349 268.065,-349 262.065,-349 256.065,-343 256.065,-337 256.065,-337 256.065,-269 256.065,-269 256.065,-263 262.065,-257 268.065,-257"/>
<text text-anchor="middle" x="336" y="-333.8" font-family="Times,serif" font-size="14.00">Users::UnlocksController</text>
<polyline fill="none" stroke="black" points="256.065,-327 415.935,-327 "/>
<polyline fill="none" stroke="black" points="256.065,-303 415.935,-303 "/>
<polyline fill="none" stroke="black" points="256.065,-279 415.935,-279 "/>
<text text-anchor="start" x="264.065" y="-263.8" font-family="Times,serif" font-size="14.00">_layout</text>
</g>
</g>
</svg>
