<?xml version="1.0" encoding="UTF-8" standalone="no"?>
<!DOCTYPE svg PUBLIC "-//W3C//DTD SVG 1.1//EN"
 "http://www.w3.org/Graphics/SVG/1.1/DTD/svg11.dtd">
<!-- Generated by graphviz version 2.38.0 (20140413.2041)
 -->
<!-- Title: models_diagram Pages: 1 -->
<svg width="369pt" height="225pt"
 viewBox="0.00 0.00 368.69 225.00" xmlns="http://www.w3.org/2000/svg" xmlns:xlink="http://www.w3.org/1999/xlink">
<g id="graph0" class="graph" transform="scale(1 1) rotate(0) translate(4 221)">
<title>models_diagram</title>
<polygon fill="none" stroke="none" points="-4,4 -4,-221 364.688,-221 364.688,4 -4,4"/>
<!-- _diagram_info -->
<g id="node1" class="node"><title>_diagram_info</title>
<text text-anchor="start" x="8" y="-202.6" font-family="Times,serif" font-size="13.00">Models diagram</text>
<text text-anchor="start" x="8" y="-189.6" font-family="Times,serif" font-size="13.00">Date: Aug 01 2016 &#45; 19:52</text>
<text text-anchor="start" x="8" y="-176.6" font-family="Times,serif" font-size="13.00">Migration version: 20160802005043</text>
<text text-anchor="start" x="8" y="-163.6" font-family="Times,serif" font-size="13.00">Generated by RailRoady 1.5.1</text>
<text text-anchor="start" x="8" y="-150.6" font-family="Times,serif" font-size="13.00">http://railroady.prestonlee.com</text>
</g>
<!-- Genre -->
<g id="node2" class="node"><title>Genre</title>
<ellipse fill="none" stroke="black" cx="256.688" cy="-180.5" rx="31.9219" ry="18"/>
<text text-anchor="middle" x="256.688" y="-176.3" font-family="Times,serif" font-size="14.00">Genre</text>
</g>
<!-- Song -->
<g id="node3" class="node"><title>Song</title>
<ellipse fill="none" stroke="black" cx="277.688" cy="-90" rx="28.0822" ry="18"/>
<text text-anchor="middle" x="277.688" y="-85.8" font-family="Times,serif" font-size="14.00">Song</text>
</g>
<!-- Genre&#45;&gt;Song -->
<g id="edge1" class="edge"><title>Genre&#45;&gt;Song</title>
<path fill="none" stroke="#162c91" d="M262.595,-154.603C265.298,-143.215 268.506,-129.696 271.267,-118.057"/>
<ellipse fill="none" stroke="#162c91" cx="261.66" cy="-158.544" rx="4.00001" ry="4.00001"/>
<polygon fill="#162c91" stroke="#162c91" points="271.342,-117.741 278.03,-109.05 272.497,-112.876 273.651,-108.011 273.651,-108.011 273.651,-108.011 272.497,-112.876 269.273,-106.972 271.342,-117.741 271.342,-117.741"/>
</g>
<!-- UserSong -->
<g id="node5" class="node"><title>UserSong</title>
<ellipse fill="none" stroke="black" cx="305.688" cy="-18" rx="44.9768" ry="18"/>
<text text-anchor="middle" x="305.688" y="-13.8" font-family="Times,serif" font-size="14.00">UserSong</text>
</g>
<!-- Song&#45;&gt;UserSong -->
<g id="edge2" class="edge"><title>Song&#45;&gt;UserSong</title>
<path fill="none" stroke="#0e189a" d="M287.377,-64.7779C289.87,-58.544 292.566,-51.8046 295.102,-45.4634"/>
<ellipse fill="none" stroke="#0e189a" cx="285.809" cy="-68.6971" rx="4.00001" ry="4.00001"/>
<polygon fill="#0e189a" stroke="#0e189a" points="295.191,-45.241 303.083,-37.6275 297.048,-40.5986 298.905,-35.9562 298.905,-35.9562 298.905,-35.9562 297.048,-40.5986 294.727,-34.2849 295.191,-45.241 295.191,-45.241"/>
</g>
<!-- User -->
<g id="node4" class="node"><title>User</title>
<ellipse fill="none" stroke="black" cx="333.688" cy="-180.5" rx="27" ry="18"/>
<text text-anchor="middle" x="333.688" y="-176.3" font-family="Times,serif" font-size="14.00">User</text>
</g>
<!-- User&#45;&gt;Song -->
<g id="edge4" class="edge"><title>User&#45;&gt;Song</title>
<path fill="none" stroke="#81a094" d="M318.298,-155.179C310.478,-142.821 300.999,-127.841 293.167,-115.462"/>
<polygon fill="#81a094" stroke="#81a094" points="318.329,-155.228 319.873,-166.084 321.002,-159.453 323.676,-163.678 323.676,-163.678 323.676,-163.678 321.002,-159.453 327.479,-161.272 318.329,-155.228 318.329,-155.228"/>
<polygon fill="#81a094" stroke="#81a094" points="293.149,-115.434 291.604,-104.577 290.475,-111.209 287.802,-106.983 287.802,-106.983 287.802,-106.983 290.475,-111.209 283.999,-109.39 293.149,-115.434 293.149,-115.434"/>
</g>
<!-- User&#45;&gt;UserSong -->
<g id="edge3" class="edge"><title>User&#45;&gt;UserSong</title>
<path fill="none" stroke="#db4f34" d="M329.253,-154.079C324.123,-124.675 315.711,-76.4552 310.448,-46.2837"/>
<ellipse fill="none" stroke="#db4f34" cx="330.004" cy="-158.383" rx="4.00001" ry="4.00001"/>
<polygon fill="#db4f34" stroke="#db4f34" points="310.381,-45.904 313.096,-35.2794 309.522,-40.9784 308.663,-36.0528 308.663,-36.0528 308.663,-36.0528 309.522,-40.9784 304.23,-36.8262 310.381,-45.904 310.381,-45.904"/>
</g>
</g>
</svg>
