<?xml version="1.0" encoding="UTF-8" standalone="no"?>
<!DOCTYPE svg PUBLIC "-//W3C//DTD SVG 1.1//EN"
 "http://www.w3.org/Graphics/SVG/1.1/DTD/svg11.dtd">
<!-- Generated by graphviz version 2.38.0 (20140413.2041)
 -->
<!-- Title: models_diagram Pages: 1 -->
<svg width="818pt" height="551pt"
 viewBox="0.00 0.00 818.32 551.00" xmlns="http://www.w3.org/2000/svg" xmlns:xlink="http://www.w3.org/1999/xlink">
<g id="graph0" class="graph" transform="scale(1 1) rotate(0) translate(4 547)">
<title>models_diagram</title>
<polygon fill="none" stroke="none" points="-4,4 -4,-547 814.323,-547 814.323,4 -4,4"/>
<!-- _diagram_info -->
<g id="node1" class="node"><title>_diagram_info</title>
<text text-anchor="start" x="8" y="-444.6" font-family="Times,serif" font-size="13.00">Models diagram</text>
<text text-anchor="start" x="8" y="-431.6" font-family="Times,serif" font-size="13.00">Date: Aug 01 2016 &#45; 19:52</text>
<text text-anchor="start" x="8" y="-418.6" font-family="Times,serif" font-size="13.00">Migration version: 20160802005043</text>
<text text-anchor="start" x="8" y="-405.6" font-family="Times,serif" font-size="13.00">Generated by RailRoady 1.5.1</text>
<text text-anchor="start" x="8" y="-392.6" font-family="Times,serif" font-size="13.00">http://railroady.prestonlee.com</text>
</g>
<!-- Genre -->
<g id="node2" class="node"><title>Genre</title>
<path fill="none" stroke="black" d="M237.825,-379.5C237.825,-379.5 461.55,-379.5 461.55,-379.5 467.55,-379.5 473.55,-385.5 473.55,-391.5 473.55,-391.5 473.55,-453.5 473.55,-453.5 473.55,-459.5 467.55,-465.5 461.55,-465.5 461.55,-465.5 237.825,-465.5 237.825,-465.5 231.825,-465.5 225.825,-459.5 225.825,-453.5 225.825,-453.5 225.825,-391.5 225.825,-391.5 225.825,-385.5 231.825,-379.5 237.825,-379.5"/>
<text text-anchor="middle" x="349.688" y="-450.3" font-family="Times,serif" font-size="14.00">Genre</text>
<polyline fill="none" stroke="black" points="225.825,-443.5 473.55,-443.5 "/>
<text text-anchor="start" x="233.825" y="-428.3" font-family="Times,serif" font-size="14.00">id :integer</text>
<text text-anchor="start" x="233.825" y="-414.3" font-family="Times,serif" font-size="14.00">name :character varying</text>
<text text-anchor="start" x="233.825" y="-400.3" font-family="Times,serif" font-size="14.00">created_at :timestamp without time zone</text>
<text text-anchor="start" x="233.825" y="-386.3" font-family="Times,serif" font-size="14.00">updated_at :timestamp without time zone</text>
</g>
<!-- Song -->
<g id="node3" class="node"><title>Song</title>
<path fill="none" stroke="black" d="M386.825,-151.5C386.825,-151.5 610.55,-151.5 610.55,-151.5 616.55,-151.5 622.55,-157.5 622.55,-163.5 622.55,-163.5 622.55,-253.5 622.55,-253.5 622.55,-259.5 616.55,-265.5 610.55,-265.5 610.55,-265.5 386.825,-265.5 386.825,-265.5 380.825,-265.5 374.825,-259.5 374.825,-253.5 374.825,-253.5 374.825,-163.5 374.825,-163.5 374.825,-157.5 380.825,-151.5 386.825,-151.5"/>
<text text-anchor="middle" x="498.688" y="-250.3" font-family="Times,serif" font-size="14.00">Song</text>
<polyline fill="none" stroke="black" points="374.825,-243.5 622.55,-243.5 "/>
<text text-anchor="start" x="382.825" y="-228.3" font-family="Times,serif" font-size="14.00">id :integer</text>
<text text-anchor="start" x="382.825" y="-214.3" font-family="Times,serif" font-size="14.00">name :character varying</text>
<text text-anchor="start" x="382.825" y="-200.3" font-family="Times,serif" font-size="14.00">duration :integer</text>
<text text-anchor="start" x="382.825" y="-186.3" font-family="Times,serif" font-size="14.00">genre_id :integer</text>
<text text-anchor="start" x="382.825" y="-172.3" font-family="Times,serif" font-size="14.00">created_at :timestamp without time zone</text>
<text text-anchor="start" x="382.825" y="-158.3" font-family="Times,serif" font-size="14.00">updated_at :timestamp without time zone</text>
</g>
<!-- Genre&#45;&gt;Song -->
<g id="edge1" class="edge"><title>Genre&#45;&gt;Song</title>
<path fill="none" stroke="#34ec15" d="M383.983,-372.704C404.589,-343.385 431.054,-305.731 453.369,-273.98"/>
<ellipse fill="none" stroke="#34ec15" cx="381.604" cy="-376.09" rx="4.00002" ry="4.00002"/>
<polygon fill="#34ec15" stroke="#34ec15" points="453.495,-273.801 462.927,-268.207 456.37,-269.711 459.245,-265.62 459.245,-265.62 459.245,-265.62 456.37,-269.711 455.563,-263.032 453.495,-273.801 453.495,-273.801"/>
</g>
<!-- UserSong -->
<g id="node5" class="node"><title>UserSong</title>
<path fill="none" stroke="black" d="M462.825,-0.5C462.825,-0.5 686.55,-0.5 686.55,-0.5 692.55,-0.5 698.55,-6.5 698.55,-12.5 698.55,-12.5 698.55,-102.5 698.55,-102.5 698.55,-108.5 692.55,-114.5 686.55,-114.5 686.55,-114.5 462.825,-114.5 462.825,-114.5 456.825,-114.5 450.825,-108.5 450.825,-102.5 450.825,-102.5 450.825,-12.5 450.825,-12.5 450.825,-6.5 456.825,-0.5 462.825,-0.5"/>
<text text-anchor="middle" x="574.688" y="-99.3" font-family="Times,serif" font-size="14.00">UserSong</text>
<polyline fill="none" stroke="black" points="450.825,-92.5 698.55,-92.5 "/>
<text text-anchor="start" x="458.825" y="-77.3" font-family="Times,serif" font-size="14.00">id :integer</text>
<text text-anchor="start" x="458.825" y="-63.3" font-family="Times,serif" font-size="14.00">position :integer</text>
<text text-anchor="start" x="458.825" y="-49.3" font-family="Times,serif" font-size="14.00">user_id :integer</text>
<text text-anchor="start" x="458.825" y="-35.3" font-family="Times,serif" font-size="14.00">song_id :integer</text>
<text text-anchor="start" x="458.825" y="-21.3" font-family="Times,serif" font-size="14.00">created_at :timestamp without time zone</text>
<text text-anchor="start" x="458.825" y="-7.3" font-family="Times,serif" font-size="14.00">updated_at :timestamp without time zone</text>
</g>
<!-- Song&#45;&gt;UserSong -->
<g id="edge2" class="edge"><title>Song&#45;&gt;UserSong</title>
<path fill="none" stroke="#368ff9" d="M531.144,-143.868C534.52,-137.25 537.955,-130.516 541.34,-123.879"/>
<ellipse fill="none" stroke="#368ff9" cx="529.238" cy="-147.606" rx="4.00002" ry="4.00002"/>
<polygon fill="#368ff9" stroke="#368ff9" points="541.371,-123.818 549.923,-116.955 543.643,-119.364 545.915,-114.91 545.915,-114.91 545.915,-114.91 543.643,-119.364 541.906,-112.865 541.371,-123.818 541.371,-123.818"/>
</g>
<!-- User -->
<g id="node4" class="node"><title>User</title>
<path fill="none" stroke="black" d="M503.053,-302.5C503.053,-302.5 798.323,-302.5 798.323,-302.5 804.323,-302.5 810.323,-308.5 810.323,-314.5 810.323,-314.5 810.323,-530.5 810.323,-530.5 810.323,-536.5 804.323,-542.5 798.323,-542.5 798.323,-542.5 503.053,-542.5 503.053,-542.5 497.053,-542.5 491.053,-536.5 491.053,-530.5 491.053,-530.5 491.053,-314.5 491.053,-314.5 491.053,-308.5 497.053,-302.5 503.053,-302.5"/>
<text text-anchor="middle" x="650.688" y="-527.3" font-family="Times,serif" font-size="14.00">User</text>
<polyline fill="none" stroke="black" points="491.053,-520.5 810.323,-520.5 "/>
<text text-anchor="start" x="499.053" y="-505.3" font-family="Times,serif" font-size="14.00">id :integer</text>
<text text-anchor="start" x="499.053" y="-491.3" font-family="Times,serif" font-size="14.00">email :character varying</text>
<text text-anchor="start" x="499.053" y="-477.3" font-family="Times,serif" font-size="14.00">encrypted_password :character varying</text>
<text text-anchor="start" x="499.053" y="-463.3" font-family="Times,serif" font-size="14.00">reset_password_token :character varying</text>
<text text-anchor="start" x="499.053" y="-449.3" font-family="Times,serif" font-size="14.00">reset_password_sent_at :timestamp without time zone</text>
<text text-anchor="start" x="499.053" y="-435.3" font-family="Times,serif" font-size="14.00">remember_created_at :timestamp without time zone</text>
<text text-anchor="start" x="499.053" y="-421.3" font-family="Times,serif" font-size="14.00">sign_in_count :integer</text>
<text text-anchor="start" x="499.053" y="-407.3" font-family="Times,serif" font-size="14.00">current_sign_in_at :timestamp without time zone</text>
<text text-anchor="start" x="499.053" y="-393.3" font-family="Times,serif" font-size="14.00">last_sign_in_at :timestamp without time zone</text>
<text text-anchor="start" x="499.053" y="-379.3" font-family="Times,serif" font-size="14.00">current_sign_in_ip :inet</text>
<text text-anchor="start" x="499.053" y="-365.3" font-family="Times,serif" font-size="14.00">last_sign_in_ip :inet</text>
<text text-anchor="start" x="499.053" y="-351.3" font-family="Times,serif" font-size="14.00">created_at :timestamp without time zone</text>
<text text-anchor="start" x="499.053" y="-337.3" font-family="Times,serif" font-size="14.00">updated_at :timestamp without time zone</text>
<text text-anchor="start" x="499.053" y="-323.3" font-family="Times,serif" font-size="14.00">name :character varying</text>
<text text-anchor="start" x="499.053" y="-309.3" font-family="Times,serif" font-size="14.00">role :integer</text>
</g>
<!-- User&#45;&gt;Song -->
<g id="edge4" class="edge"><title>User&#45;&gt;Song</title>
<path fill="none" stroke="#c5b513" d="M559.35,-294.108C554.353,-287.139 549.449,-280.299 544.728,-273.714"/>
<polygon fill="#c5b513" stroke="#c5b513" points="559.53,-294.359 561.7,-305.108 562.444,-298.423 565.357,-302.486 565.357,-302.486 565.357,-302.486 562.444,-298.423 569.014,-299.864 559.53,-294.359 559.53,-294.359"/>
<polygon fill="#c5b513" stroke="#c5b513" points="544.681,-273.648 542.511,-262.899 541.767,-269.585 538.854,-265.521 538.854,-265.521 538.854,-265.521 541.767,-269.585 535.197,-268.143 544.681,-273.648 544.681,-273.648"/>
</g>
<!-- User&#45;&gt;UserSong -->
<g id="edge3" class="edge"><title>User&#45;&gt;UserSong</title>
<path fill="none" stroke="#c05f83" d="M654.248,-294.111C652.296,-248.096 646.272,-196.343 631.688,-151 628.699,-141.707 624.589,-132.391 619.934,-123.442"/>
<ellipse fill="none" stroke="#c05f83" cx="654.407" cy="-298.337" rx="4" ry="4"/>
<polygon fill="#c05f83" stroke="#c05f83" points="619.913,-123.404 619.067,-112.471 617.515,-119.016 615.118,-114.629 615.118,-114.629 615.118,-114.629 617.515,-119.016 611.169,-116.787 619.913,-123.404 619.913,-123.404"/>
</g>
</g>
</svg>
